<?xml version="1.0" standalone="no"?>
<!DOCTYPE svg PUBLIC "-//W3C//DTD SVG 20010904//EN"
 "http://www.w3.org/TR/2001/REC-SVG-20010904/DTD/svg10.dtd">
<svg version="1.0" xmlns="http://www.w3.org/2000/svg"
 width="1024.000000pt" height="1024.000000pt" viewBox="0 0 1024.000000 1024.000000"
 preserveAspectRatio="xMidYMid meet">
<metadata>
Created by potrace 1.16, written by Peter Selinger 2001-2019
</metadata>
<g transform="translate(0.000000,1024.000000) scale(0.100000,-0.100000)"
fill="#000000" stroke="none">
<path d="M4665 10225 c-655 -60 -1245 -227 -1825 -516 -233 -116 -375 -198
-570 -328 -581 -389 -1089 -907 -1467 -1496 -446 -696 -715 -1487 -788 -2315
-20 -229 -20 -671 0 -900 100 -1144 578 -2215 1358 -3045 298 -317 585 -560
934 -789 737 -483 1560 -762 2441 -827 208 -15 736 -7 925 15 850 96 1623 380
2322 853 443 300 840 673 1181 1108 99 127 306 435 389 579 370 647 594 1361
660 2113 19 219 19 667 0 886 -119 1349 -748 2572 -1776 3454 -806 692 -1813
1114 -2879 1208 -213 18 -703 18 -905 0z m1780 -2085 c105 -6 209 -13 233 -16
l42 -5 0 -495 0 -494 -352 0 c-382 0 -439 -6 -546 -55 -70 -32 -135 -94 -169
-159 -47 -93 -53 -149 -53 -578 l0 -398 528 0 528 0 -67 -537 c-38 -296 -68
-541 -69 -545 0 -5 -207 -8 -460 -8 l-460 0 0 -1385 0 -1385 -545 0 -545 0 -2
1383 -3 1382 -462 3 -463 2 0 545 0 545 465 0 465 0 0 475 c0 371 3 498 15
584 42 299 162 563 345 755 214 225 503 358 861 396 95 10 431 5 714 -10z"/>
</g>
</svg>
